# AST/ASF file generated using VICON BodyLanguage
# -----------------------------------------------
:version 1.10
:name VICON
:units
  mass 1.0
  length 0.45
  angle deg
:documentation
   .ast/.asf automatically generated from VICON data using
   VICON BodyBuilder and BodyLanguage model FoxedUp or BRILLIANT.MOD
:root
   order TX TY TZ RX RY RZ
   axis XYZ
   position 0 0 0  
   orientation 0 0 0 
:bonedata
  begin
     id 1 
     name lhipjoint
     direction 0.677091 -0.635792 0.370561 
     length 2.74323 
     axis 0 0 0  XYZ
  end
  begin
     id 2 
     name lfemur
     direction 0.34202 -0.939693 0  
     length 7.44995  
     axis 0 0 20  XYZ
    dof rx ry rz
    limits (-160.0 20.0)
           (-70.0 70.0)
           (-60.0 70.0)
  end
  begin
     id 3 
     name ltibia
     direction 0.34202 -0.939693 0   
     length 7.34467   
     axis 0 0 20   XYZ
    dof rx
    limits (-10.0 170.0)
  end
  begin
     id 4 
     name lfoot
     direction 0.101953 -0.280114 0.954537   
     length 1.72105   
     axis -90 7.62852e-016 20   XYZ
    dof rx rz
    limits (-45.0 90.0)
           (-70.0 20.0)
  end
  begin
     id 5 
     name ltoes
     direction 1.53537e-011 -4.21915e-011 1   
     length 0.865872   
     axis -90 7.62852e-016 20   XYZ
    dof rx
    limits (-90.0 20.0)
  end
  begin
     id 6 
     name rhipjoint
     direction -0.695735 -0.620586 0.361699   
     length 2.81045  
     axis 0 0 0  XYZ 
  end
  begin
     id 7 
     name rfemur
     direction -0.34202 -0.939693 0   
     length 7.29387   
     axis 0 0 -20   XYZ
    dof rx ry rz
    limits (-160.0 20.0)
           (-70.0 70.0)
           (-70.0 60.0)
  end
  begin
     id 8 
     name rtibia
     direction -0.34202 -0.939693 0   
     length 7.44935   
     axis 0 0 -20   XYZ
    dof rx
    limits (-10.0 170.0)
 end
 begin
     id 9 
     name rfoot
     direction -0.104163 -0.286184 0.952496   
     length 1.77731  
     axis -90 -7.62852e-016 -20   XYZ
    dof rx rz
    limits (-45.0 90.0)
           (-20.0 70.0)
  end
  begin
     id 10 
     name rtoes
     direction -1.5355e-011 -4.21888e-011 1   
     length 0.892424   
     axis -90 -7.62852e-016 -20   XYZ
    dof rx
    limits (-90.0 20.0)
  end
  begin
     id 11 
     name lowerback
     direction 0.0100202 0.997226 -0.0737589   
     length 2.16892   
     axis 0 0 0   XYZ
    dof rx ry rz
    limits (-20.0 45.0)
           (-30.0 30.0)
           (-30.0 30.0)
  end
  begin
     id 12 
     name upperback
     direction 0.00432398 0.999988 -0.00215019   
     length 2.17326   
     axis 0 0 0   XYZ
    dof rx ry rz
    limits (-20.0 45.0)
           (-30.0 30.0)
           (-30.0 30.0)
  end
  begin
     id 13 
     name thorax
     direction -0.00195047 0.999485 0.0320434   
     length 2.18139   
     axis 0 0 0   XYZ
    dof rx ry rz
    limits (-20.0 45.0)
           (-30.0 30.0)
           (-30.0 30.0)
  end
  begin
     id 14 
     name lowerneck
     direction 0.00782762 0.986241 0.165128   
     length 1.88415   
     axis 0 0 0   XYZ
    dof rx ry rz
    limits (-20.0 45.0)
           (-30.0 30.0)
           (-30.0 30.0)
  end
  begin
     id 15 
     name upperneck
     direction 0.00988667 0.981098 -0.193258   
     length 1.9242   
     axis 0 0 0   XYZ
    dof rx ry rz
    limits (-20.0 45.0)
           (-30.0 30.0)
           (-30.0 30.0)
  end
  begin
     id 16
     name head
     direction 0.00252199 0.996513 -0.0833958  
     length 1.93887  
     axis 0 0 0   XYZ
    dof rx ry rz
    limits (-20.0 45.0)
           (-30.0 30.0)
           (-30.0 30.0)
  end
  begin
     id 17 
     name lclavicle
     direction 0.929492 0.368193 -0.0218667  
     length 3.5955  
     axis 0 0 0   XYZ
    dof ry rz
    limits (-20.0 10.0)
           (0.0 20.0)
  end
  begin
     id 18 
     name lhumerus
     direction 1 -4.48972e-011 1.41911e-027   
     length 5.2795   
     axis 180 -30 -90   XYZ
    dof rx ry rz
    limits (-60.0 90.0)
           (-90.0 90.0)
           (-90.0 90.0)
  end
  begin
     id 19
     name lradius
     direction 1 -4.48963e-011 7.05772e-027   
     length 3.53504   
     axis 180 -30 -90   XYZ
    dof rx
    limits (-10.0 170.0)
  end
  begin
     id 20
     name lwrist
     direction 1 -4.48957e-011 9.54866e-027   
     length 1.76752   
     axis -7.69462e-015 90 90   XYZ
    dof ry
    limits (-180.0 0.0)
 end
  begin
     id 21 
     name lhand
     direction 1 -4.48979e-011 1.90973e-026   
     length 0.667948   
     axis -1.21857e-014 90 90   XYZ
    dof rx rz
    limits (-90.0 90.0)
           (-45.0 45.0)
  end
  begin
     id 22 
     name lfingers
     direction 1 -4.48987e-011 3.81946e-026   
     length 0.538517   
     axis -2.43714e-014 90 90   XYZ
    dof rx
    limits (0.0 90.0)
  end
  begin
     id 23
     name lthumb
     direction 0.707107 -6.34962e-011 0.707107   
     length 0.773206   
     axis -90 45 2.85299e-015   XYZ
    dof rx rz
    limits (-45.0 45.0)
           (-45.0 45.0)
  end
  begin
     id 24 
     name rclavicle
     direction -0.898763 0.414256 -0.143584   
     length 3.5176  
     axis 0 0 0   XYZ 
    dof ry rz
    limits (-10.0 20.0)
           (-20.0 0.0)
  end
  begin
     id 25 
     name rhumerus
     direction -1 -4.48971e-011 1.129e-027  
     length 5.25035   
     axis 180 30 90   XYZ
    dof rx ry rz
    limits (-90.0 60.0)
           (-90.0 90.0)
           (-90.0 90.0)
  end
  begin
     id 26 
     name rradius
     direction -1 -4.48955e-011 6.34664e-027   
     length 3.58884   
     axis 180 30 90   XYZ
    dof rx
    limits (-10.0 170.0)
  end
  begin
     id 27 
     name rwrist
     direction -1 -4.48966e-011 9.54866e-027   
     length 1.79442   
     axis -7.69462e-015 -90 -90   XYZ
    dof ry
    limits (-180.0 0.0)
  end
  begin
     id 28
     name rhand
     direction -1 -4.48973e-011 1.90973e-026   
     length 0.779235   
     axis -1.21857e-014 -90 -90   XYZ
    dof rx rz
    limits (-90.0 90.0)
           (-45.0 45.0)
  end
  begin
     id 29
     name rfingers
     direction -1 -4.48984e-011 3.81946e-026   
     length 0.62824   
     axis -2.43714e-014 -90 -90   XYZ
    dof rx
    limits (0.0 90.0)
  end
  begin
     id 30
     name rthumb
     direction -0.707107 -6.34968e-011 0.707107   
     length 0.90203   
     axis -90 -45 -2.85299e-015   XYZ
    dof rx rz
    limits (-45.0 45.0)
           (-45.0 45.0)
  end
:hierarchy
  begin
    root lhipjoint rhipjoint lowerback
    lhipjoint lfemur
    lfemur ltibia
    ltibia lfoot
    lfoot ltoes
    rhipjoint rfemur
    rfemur rtibia
    rtibia rfoot
    rfoot rtoes
    lowerback upperback
    upperback thorax
    thorax lowerneck lclavicle rclavicle
    lowerneck upperneck
    upperneck head
    lclavicle lhumerus
    lhumerus lradius
    lradius lwrist
    lwrist lhand lthumb
    lhand lfingers
    rclavicle rhumerus
    rhumerus rradius
    rradius rwrist
    rwrist rhand rthumb
    rhand rfingers
  end

#!OML:ASF I:\Random Stuff\random\construction\7_22_03\Session 2\subj1.ASF
:FULLY-SPECIFIED
:DEGREES
166
root 4.13298 17.593 1.64181 -88.4563 88.2324 -94.9536
lowerback -0.802567 2.52705 1.46185
upperback -1.05659 3.37474 0.357773
thorax -0.569929 1.68257 -0.439656
lowerneck -20.1024 -0.298641 1.38605
upperneck 12.762 -1.1107 1.9038
head 7.20114 -0.269728 0.272236
rclavicle -3.08272e-014 6.85807e-015
rhumerus -37.7219 10.8928 -76.2829
rradius 25.7123
rwrist -2.80517
rhand -17.4181 18.4573
rfingers 7.12502
rthumb 8.83187 -11.3379
lclavicle -3.08272e-014 6.85807e-015
lhumerus -37.835 -17.6003 78.7121
lradius 31.819
lwrist 40.9379
lhand -21.1169 61.4477
lfingers 7.12502
lthumb 5.26144 268.638
rfemur -9.21516 20.6945 22.3588
rtibia 18.7218
rfoot -15.453 -39.6442
rtoes 5.66612
lfemur -19.716 -24.6915 -13.3847
ltibia 28.725
lfoot -16.0288 20.4386
ltoes -27.837
167
root 4.12736 17.5955 1.64218 -91.405 88.2619 -97.9057
lowerback -1.00044 2.50857 1.51969
upperback -1.14359 3.34861 0.386365
thorax -0.547233 1.66967 -0.435672
lowerneck -19.3805 -0.24021 1.32776
upperneck 12.8964 -0.95746 1.62865
head 7.12303 -0.229575 0.209394
rclavicle 3.885e-014 9.54166e-015
rhumerus -38.2149 12.1235 -76.886
rradius 26.3407
rwrist -2.24172
rhand -17.7609 18.3901
rfingers 7.12502
rthumb 8.50112 -11.4188
lclavicle 3.885e-014 9.54166e-015
lhumerus -38.5033 -19.1479 79.8041
lradius 31.9058
lwrist 40.334
lhand -21.2625 61.5216
lfingers 7.12502
lthumb 5.12094 268.56
rfemur -9.19962 20.5603 22.3338
rtibia 18.6828
rfoot -15.2398 -39.6755
rtoes 5.09116
lfemur -19.7303 -24.4921 -13.4368
ltibia 28.663
lfoot -15.8082 20.1727
ltoes -28.4285
168
root 4.12046 17.5995 1.64399 -95.5569 88.2465 -102.061
lowerback -1.15628 2.53535 1.65769
upperback -1.25178 3.38318 0.370873
thorax -0.561466 1.686 -0.523395
lowerneck -18.9657 -0.22687 1.40305
upperneck 13.4824 -0.89693 1.25556
head 7.24327 -0.228044 0.0820028
rclavicle 5.77718e-016 2.08724e-015
rhumerus -38.8872 13.4097 -77.7112
rradius 27.1903
rwrist -2.03179
rhand -18.3311 18.3342
rfingers 7.12502
rthumb 7.95079 -11.4963
lclavicle 5.77718e-016 2.08724e-015
lhumerus -39.0764 -20.7644 80.9279
lradius 32.0199
lwrist 39.7423
lhand -21.1472 61.5692
lfingers 7.12502
lthumb 5.23222 268.515
rfemur -9.17752 20.4307 22.3563
rtibia 18.6295
rfoot -15.0061 -39.7502
rtoes 4.57413
lfemur -19.7583 -24.1353 -13.4539
ltibia 28.5941
lfoot -15.6645 19.7155
ltoes -28.6472
169
root 4.11304 17.6022 1.64603 -99.4944 88.2263 -105.948
lowerback -1.17956 2.60283 1.84298
upperback -1.34634 3.47352 0.310708
thorax -0.628914 1.72888 -0.688502
lowerneck -18.8791 -0.248134 1.57437
upperneck 14.3425 -0.895584 0.784247
head 7.50855 -0.254293 -0.101342
rclavicle 2.65315e-014 -9.93923e-016
rhumerus -39.6277 14.8747 -78.7791
rradius 28.1712
rwrist -2.43475
rhand -18.9365 18.2225
rfingers 7.12502
rthumb 7.36644 -11.6293
lclavicle 2.65315e-014 -9.93923e-016
lhumerus -39.559 -22.4055 82.0528
lradius 32.2505
lwrist 39.3626
lhand -21.0453 61.5233
lfingers 7.12502
lthumb 5.3306 268.564
rfemur -9.09947 20.4256 22.3754
rtibia 18.562
rfoot -15.0374 -39.8359
rtoes 4.82948
lfemur -19.7208 -23.7629 -13.5023
ltibia 28.5193
lfoot -15.5447 19.255
ltoes -28.755
170
root 4.10576 17.6036 1.64669 -101.962 88.2027 -108.364
lowerback -1.15354 2.64541 2.01962
upperback -1.42088 3.53167 0.276535
thorax -0.705831 1.75552 -0.824527
lowerneck -18.9589 -0.278943 1.5888
upperneck 15.2106 -0.894008 0.49383
head 7.80836 -0.270992 -0.201148
rclavicle -5.94428e-014 -9.44227e-015
rhumerus -40.0986 16.2122 -79.7459
rradius 29.0228
rwrist -2.87799
rhand -19.207 18.3125
rfingers 7.12502
rthumb 7.10532 -11.5483
lclavicle -5.94428e-014 -9.44227e-015
lhumerus -39.8896 -23.5757 83.0538
lradius 32.5666
lwrist 39.1261
lhand -20.9591 61.3643
lfingers 7.12502
lthumb 5.41389 268.725
rfemur -9.03843 20.4836 22.3761
rtibia 18.5009
rfoot -15.2686 -39.8547
rtoes 5.67414
lfemur -19.6674 -23.4312 -13.5439
ltibia 28.4374
lfoot -15.4113 18.8749
ltoes -28.9379
171
root 4.09907 17.6054 1.64658 -103.129 88.2052 -109.516
lowerback -1.1091 2.61831 2.11411
upperback -1.48509 3.49789 0.266336
thorax -0.791344 1.73675 -0.891982
lowerneck -19.1451 -0.191189 1.67575
upperneck 16.0146 -0.759476 0.266707
head 8.10865 -0.214894 -0.276481
rclavicle 1.75924e-014 1.04362e-014
rhumerus -40.1402 17.3352 -80.539
rradius 29.5881
rwrist -3.09745
rhand -19.1703 18.643
rfingers 7.12502
rthumb 7.14079 -11.2165
lclavicle 1.75924e-014 1.04362e-014
lhumerus -39.9879 -23.971 83.725
lradius 32.9304
lwrist 38.845
lhand -20.6304 61.0227
lfingers 7.12502
lthumb 5.73122 269.075
rfemur -9.05312 20.2992 22.362
rtibia 18.5074
rfoot -15.1241 -39.7296
rtoes 5.4076
lfemur -19.6263 -23.1451 -13.5846
ltibia 28.3225
lfoot -15.2905 18.5723
ltoes -28.9726
172
root 4.09291 17.6063 1.64707 -103.61 88.261 -109.945
lowerback -0.979042 2.50893 2.0452
upperback -1.51317 3.35623 0.280278
thorax -0.901948 1.66531 -0.847874
lowerneck -19.4362 0.0249744 1.91638
upperneck 16.7605 -0.498355 0.0722274
head 8.41175 -0.0869095 -0.350152
rclavicle 5.47062e-014 4.47266e-015
rhumerus -39.7328 18.7125 -81.3919
rradius 29.8317
rwrist -3.63646
rhand -19.2047 19.0591
rfingers 7.12502
rthumb 7.1076 -10.8015
lclavicle 5.47062e-014 4.47266e-015
lhumerus -39.8628 -23.5775 84.0598
lradius 33.3344
lwrist 38.6439
lhand -20.348 60.6252
lfingers 7.12502
lthumb 6.00388 269.48
rfemur -9.06009 19.9841 22.3391
rtibia 18.5972
rfoot -14.6787 -39.5894
rtoes 4.12287
lfemur -19.507 -22.9793 -13.6796
ltibia 28.1631
lfoot -15.1894 18.3949
ltoes -28.8507
173
root 4.08666 17.6076 1.64599 -106.174 88.4387 -112.466
lowerback -0.831328 2.36695 1.77753
upperback -1.49466 3.16974 0.274963
thorax -0.984965 1.57365 -0.711833
lowerneck -19.8389 0.152756 1.77759
upperneck 17.3129 -0.348088 0.33755
head 8.6728 0.0109495 -0.219054
rclavicle -2.51991e-014 -1.68967e-015
rhumerus -38.8772 20.1426 -82.141
rradius 29.7767
rwrist -4.3452
rhand -19.1491 19.5453
rfingers 7.12502
rthumb 7.16123 -10.3135
lclavicle -2.51991e-014 -1.68967e-015
lhumerus -39.5495 -22.7647 84.2201
lradius 33.8559
lwrist 38.7022
lhand -20.3196 60.3643
lfingers 7.12502
lthumb 6.03131 269.742
rfemur -9.08086 19.6634 22.1455
rtibia 18.7059
rfoot -14.4114 -39.4108
rtoes 3.38462
lfemur -19.3879 -22.8734 -13.9316
ltibia 27.9937
lfoot -15.0531 18.2528
ltoes -28.893
174
root 4.08198 17.6101 1.64364 -111.089 88.6542 -117.391
lowerback -0.670843 2.27857 1.50356
upperback -1.48305 3.05357 0.216607
thorax -1.07664 1.51692 -0.62614
lowerneck -20.0525 0.239575 1.63303
upperneck 17.4559 -0.265852 0.683919
head 8.76111 0.0803576 -0.0665563
rclavicle 1.42628e-014 5.66536e-015
rhumerus -37.7203 21.0207 -82.5226
rradius 29.5588
rwrist -4.53848
rhand -18.6137 19.9061
rfingers 7.12502
rthumb 7.67798 -9.93452
lclavicle 1.42628e-014 5.66536e-015
lhumerus -39.0286 -21.8746 84.308
lradius 34.4226
lwrist 38.7884
lhand -20.3595 60.3583
lfingers 7.12502
lthumb 5.99278 269.746
rfemur -9.13745 19.3756 21.8529
rtibia 18.7736
rfoot -14.2524 -39.2169
rtoes 2.92645
lfemur -19.341 -22.798 -14.233
ltibia 27.8603
lfoot -14.9322 18.1445
ltoes -29.1784
175
root 4.08114 17.6122 1.64538 -111.287 88.6345 -117.543
lowerback -0.390726 2.22294 1.46128
upperback -1.48004 2.98441 0.256205
thorax -1.23618 1.48155 -0.57433
lowerneck -20.146 0.313594 1.5284
upperneck 17.3686 -0.170824 0.845748
head 8.74845 0.134526 0.0182004
rclavicle -4.9075e-015 6.26172e-015
rhumerus -36.3467 21.3555 -82.5494
rradius 29.2752
rwrist -3.93213
rhand -17.8212 19.8975
rfingers 7.12502
rthumb 8.44288 -9.91376
lclavicle -4.9075e-015 6.26172e-015
lhumerus -38.3148 -20.7388 84.3592
lradius 34.9065
lwrist 38.7393
lhand -20.2549 60.3983
lfingers 7.12502
lthumb 6.0937 269.709
rfemur -9.06889 19.5993 21.8924
rtibia 18.7395
rfoot -14.2904 -39.403
rtoes 3.55951
lfemur -19.2719 -22.7818 -14.2311
ltibia 27.8235
lfoot -14.9171 18.1344
ltoes -29.2913
176
root 4.08427 17.6136 1.65008 -107.901 88.4045 -114.071
lowerback -0.0738782 2.14215 1.57938
upperback -1.48867 2.88617 0.423979
thorax -1.42754 1.43069 -0.481892
lowerneck -20.1819 0.432536 1.45558
upperneck 17.2547 0.0280552 0.771445
head 8.71598 0.212573 0.0307745
rclavicle -2.92027e-014 3.8763e-015
rhumerus -34.9056 21.1748 -82.344
rradius 29.0154
rwrist -2.38804
rhand -17.2436 19.657
rfingers 7.12502
rthumb 9.0003 -10.131
lclavicle -2.92027e-014 3.8763e-015
lhumerus -37.6889 -19.2679 84.417
lradius 35.6013
lwrist 38.5474
lhand -19.9972 60.3065
lfingers 7.12502
lthumb 6.34247 269.808
rfemur -8.87861 20.2852 22.222
rtibia 18.5989
rfoot -14.6222 -39.9638
rtoes 5.59431
lfemur -19.1999 -22.7162 -13.9757
ltibia 27.8947
lfoot -14.9788 18.0616
ltoes -29.1786
177
root 4.09101 17.6107 1.65327 -104.799 88.1276 -110.916
lowerback 0.187186 2.04227 1.73352
upperback -1.54305 2.76592 0.642511
thorax -1.6358 1.36887 -0.355184
lowerneck -20.0956 0.621114 1.71669
upperneck 17.1726 0.358064 0.0762433
head 8.67492 0.306187 -0.205523
rclavicle 2.7395e-015 -9.0447e-015
rhumerus -33.6881 20.7682 -82.1646
rradius 28.8953
rwrist -0.339739
rhand -17.2588 19.3914
rfingers 7.12502
rthumb 8.98559 -10.3973
lclavicle 2.7395e-015 -9.0447e-015
lhumerus -37.268 -17.5057 84.5501
lradius 36.6227
lwrist 38.1667
lhand -19.9426 60.0076
lfingers 7.12502
lthumb 6.39518 89.891
rfemur -8.69175 20.798 22.6085
rtibia 18.4533
rfoot -14.7401 -40.4554
rtoes 5.8999
lfemur -19.1739 -22.6532 -13.6673
ltibia 28.0187
lfoot -15.0881 17.9841
ltoes -29.1042
178
root 4.10121 17.605 1.65649 -103.709 88.064 -109.906
lowerback 0.305818 1.90138 1.61678
upperback -1.68239 2.58787 0.840312
thorax -1.86292 1.28207 -0.0929941
lowerneck -19.957 0.914559 2.34275
upperneck 17.2582 0.847479 -1.17317
head 8.69202 0.441109 -0.669029
rclavicle 5.79209e-014 8.74653e-015
rhumerus -32.9048 20.7496 -82.3076
rradius 29.0483
rwrist 1.3676
rhand -18.0108 18.9611
rfingers 7.12502
rthumb 8.2599 -10.8574
lclavicle 5.79209e-014 8.74653e-015
lhumerus -37.1393 -15.3589 84.7376
lradius 37.9594
lwrist 37.4821
lhand -20.0523 59.5366
lfingers 7.12502
lthumb 6.28928 89.4232
rfemur -8.66889 21.2105 22.7159
rtibia 18.3948
rfoot -14.6955 -40.8957
rtoes 4.76726
lfemur -19.2904 -22.8176 -13.5359
ltibia 28.1445
lfoot -15.2087 18.1631
ltoes -29.0604
179
root 4.1164 17.6012 1.66099 -106.126 88.3264 -112.525
lowerback 0.239849 1.70164 1.11138
upperback -1.88679 2.32172 0.955076
thorax -2.06361 1.15798 0.309265
lowerneck -19.8217 1.29505 3.01605
upperneck 17.5836 1.44806 -2.38448
head 8.80565 0.639285 -1.11401
rclavicle 2.70844e-014 9.74045e-015
rhumerus -32.6111 21.044 -82.7995
rradius 29.5988
rwrist 2.55778
rhand -19.223 18.3363
rfingers 7.12502
rthumb 7.08993 -11.525
lclavicle 2.70844e-014 9.74045e-015
lhumerus -37.3664 -12.9241 84.8975
lradius 39.558
lwrist 36.3079
lhand -19.9171 58.884
lfingers 7.12502
lthumb 6.41985 88.7667
rfemur -8.80833 22.194 22.3973
rtibia 18.4514
rfoot -15.1427 -41.7962
rtoes 5.2507
lfemur -19.5158 -23.1353 -13.7329
ltibia 28.2502
lfoot -15.2952 18.5092
ltoes -29.1653
